<?xml version="1.0" standalone="no"?>
<!DOCTYPE svg PUBLIC "-//W3C//DTD SVG 20010904//EN"
 "http://www.w3.org/TR/2001/REC-SVG-20010904/DTD/svg10.dtd">
<svg version="1.0" xmlns="http://www.w3.org/2000/svg"
 width="1416.000000pt" height="1416.000000pt" viewBox="0 0 1416.000000 1416.000000"
 preserveAspectRatio="xMidYMid meet">
<metadata>
Created by potrace 1.14, written by Peter Selinger 2001-2017
</metadata>
<g transform="translate(0.000000,1416.000000) scale(0.100000,-0.100000)"
fill="#000000" stroke="none">
<path d="M7750 10978 c-18 -35 -45 -85 -60 -113 -26 -48 -68 -125 -150 -280
-127 -238 -391 -762 -519 -1030 -40 -82 -81 -166 -91 -186 -11 -20 -17 -39
-13 -43 3 -3 1 -6 -5 -6 -7 0 -12 -9 -12 -20 0 -11 -4 -20 -10 -20 -5 0 -10
-5 -10 -11 0 -6 -25 -63 -55 -126 -30 -64 -58 -126 -61 -139 -3 -13 -10 -24
-15 -24 -5 0 -9 -4 -9 -10 0 -9 -15 -44 -85 -195 -43 -93 -87 -190 -112 -245
-31 -69 -54 -118 -89 -195 -15 -33 -28 -64 -30 -70 -1 -5 -19 -46 -39 -90 -20
-44 -43 -94 -50 -110 -37 -82 -59 -130 -60 -135 -1 -3 -9 -23 -18 -45 -10 -22
-17 -44 -16 -49 0 -5 -3 -12 -8 -15 -5 -3 -24 -40 -41 -81 -17 -41 -44 -104
-61 -139 -17 -35 -28 -68 -25 -73 3 -4 0 -8 -5 -8 -6 0 -11 -4 -11 -9 0 -5 -5
-22 -11 -38 -6 -15 -9 -29 -7 -29 2 -1 -5 -11 -15 -22 -10 -11 -19 -29 -20
-41 -1 -11 -5 -21 -9 -21 -4 0 -7 -3 -6 -7 1 -5 -6 -25 -15 -47 -9 -21 -17
-40 -17 -41 0 -2 -16 -38 -35 -79 -19 -42 -35 -79 -35 -84 0 -4 -6 -18 -13
-32 -7 -14 -22 -49 -32 -77 -10 -29 -23 -53 -27 -53 -4 0 -7 -3 -7 -7 1 -5 0
-11 -1 -15 -1 -5 -3 -11 -5 -15 -3 -14 -17 -47 -35 -88 -10 -22 -34 -80 -55
-130 -20 -49 -42 -101 -48 -115 -5 -14 -11 -30 -12 -36 -2 -6 -14 -35 -27 -65
-14 -30 -53 -124 -88 -209 -34 -85 -68 -168 -75 -185 -7 -16 -41 -100 -75
-185 -34 -85 -69 -168 -77 -185 -8 -16 -16 -37 -18 -46 -2 -9 -13 -37 -24 -62
-12 -25 -21 -49 -21 -52 0 -3 -8 -25 -19 -48 -10 -23 -59 -143 -109 -267 -50
-124 -105 -259 -122 -300 -17 -41 -33 -84 -35 -94 -3 -11 -9 -24 -15 -30 -5
-5 -10 -15 -10 -22 0 -6 -10 -33 -22 -60 -12 -27 -23 -54 -24 -61 -1 -7 -14
-37 -28 -67 -14 -30 -26 -60 -26 -66 0 -5 -4 -18 -10 -28 -21 -38 -69 -162
-62 -162 4 0 3 -4 -3 -8 -5 -4 -51 -110 -102 -235 l-91 -228 41 -19 c23 -10
92 -38 152 -61 61 -23 129 -50 152 -60 23 -11 47 -19 53 -19 5 0 18 -4 28 -9
35 -18 297 -121 308 -121 3 0 30 -11 60 -25 30 -14 58 -25 63 -25 5 0 28 -8
52 -19 24 -10 116 -46 204 -80 88 -34 169 -66 180 -71 11 -5 49 -20 85 -34
236 -90 307 -118 325 -126 11 -5 62 -25 114 -45 90 -34 97 -35 231 -35 l137 0
13 48 c7 26 16 52 20 57 4 6 13 33 20 60 7 28 17 56 23 63 5 6 7 12 4 12 -3 0
1 16 9 35 8 19 14 37 14 40 1 7 10 36 21 63 5 13 9 32 9 42 0 11 5 20 12 20 6
0 9 3 6 6 -4 3 5 38 19 77 13 40 26 79 28 87 6 25 175 533 185 555 10 23 51
145 54 160 2 8 18 55 44 125 3 8 6 18 7 23 2 4 3 8 5 10 1 1 3 9 5 17 4 17 98
285 110 312 3 9 8 22 9 30 2 7 6 22 10 33 5 11 15 38 23 60 8 22 16 47 18 55
2 8 18 53 35 100 18 47 33 90 34 95 1 6 4 15 7 20 4 6 12 28 19 50 10 32 70
202 97 275 3 8 7 20 8 25 6 23 47 131 56 149 6 10 12 28 15 40 2 11 8 30 13
41 10 22 44 115 47 128 1 4 3 9 4 12 1 3 3 8 4 13 1 4 10 24 19 46 9 21 17 42
17 45 0 4 12 36 26 72 14 35 27 71 29 79 5 19 122 331 221 587 41 105 74 194
74 196 0 3 6 20 14 38 8 19 14 36 13 39 0 3 6 16 13 30 8 14 15 27 15 30 1 10
40 106 52 130 7 14 13 32 13 40 0 9 4 20 8 25 5 6 19 39 32 75 13 36 29 68 34
72 6 4 8 8 4 8 -6 0 19 69 56 155 7 17 19 46 26 65 7 19 24 59 37 88 12 29 23
55 23 58 0 3 6 20 14 37 7 18 23 57 36 87 12 30 28 69 35 85 7 17 46 109 85
205 87 211 97 235 118 280 8 19 16 40 18 45 2 9 89 215 119 280 7 17 20 47 29
68 9 20 24 54 33 75 9 20 17 39 18 42 3 10 23 56 51 115 15 33 28 62 29 65 12
34 87 204 95 215 4 6 13 28 20 50 7 22 21 51 30 65 10 14 18 28 19 33 1 6 10
30 44 107 5 14 11 27 12 30 0 3 14 32 29 65 16 33 36 78 46 100 10 22 34 76
54 120 40 85 80 174 99 215 6 14 13 28 15 32 3 7 -31 24 -153 78 -22 9 -69 30
-104 46 -35 16 -67 29 -70 29 -3 1 -33 14 -66 29 -64 30 -107 49 -115 50 -3 1
-21 9 -40 18 -44 20 -104 46 -200 88 -41 18 -104 46 -140 62 -36 17 -69 31
-75 32 -5 1 -41 17 -79 34 -38 18 -70 32 -72 32 -2 0 -38 16 -80 35 -41 19
-81 35 -88 35 -6 0 -16 4 -21 9 -6 5 -63 32 -128 60 l-118 51 -118 0 -118 0
-33 -62z"/>
<path d="M3357 10035 c-65 -41 -122 -75 -127 -75 -4 0 -10 -4 -12 -8 -1 -4
-63 -46 -137 -92 -173 -109 -188 -119 -250 -155 -28 -16 -51 -33 -51 -37 0 -5
-5 -8 -10 -8 -6 0 -44 -22 -86 -50 -41 -27 -80 -50 -85 -50 -5 0 -9 -3 -9 -8
0 -4 -9 -12 -20 -17 -11 -6 -69 -41 -131 -80 -61 -38 -122 -76 -137 -84 -15
-8 -33 -20 -40 -27 -7 -7 -35 -25 -62 -40 -28 -15 -50 -32 -50 -37 0 -6 -2 -8
-5 -5 -5 5 -122 -65 -152 -92 -7 -5 -15 -10 -18 -10 -4 0 -26 -13 -50 -30 -24
-16 -48 -30 -54 -30 -6 0 -11 -4 -11 -9 0 -5 -15 -16 -32 -25 -18 -9 -63 -36
-99 -59 -36 -23 -119 -76 -185 -117 -65 -41 -120 -78 -122 -82 -2 -5 -10 -8
-18 -8 -8 0 -14 -5 -14 -10 0 -6 -3 -9 -7 -8 -7 2 -67 -35 -201 -123 -24 -16
-46 -29 -51 -29 -4 0 -16 -8 -27 -18 -10 -9 -40 -28 -66 -42 -27 -14 -48 -28
-48 -31 0 -4 -13 -12 -30 -19 -16 -7 -30 -16 -30 -20 0 -4 -8 -10 -17 -14 -18
-6 -34 -15 -88 -51 -16 -11 -42 -27 -57 -34 -16 -8 -28 -18 -28 -23 0 -4 -5
-8 -10 -8 -6 0 -43 -21 -83 -47 -121 -78 -406 -259 -439 -278 -64 -38 -114
-69 -118 -74 -6 -8 -39 -28 -69 -43 l-24 -12 7 -381 c7 -422 12 -579 20 -612
3 -13 0 -23 -5 -23 -6 0 -7 -5 -4 -11 7 -10 8 -41 20 -344 3 -77 8 -207 11
-290 3 -82 7 -179 8 -215 l2 -65 94 -58 c52 -32 102 -61 110 -64 8 -4 34 -19
57 -35 23 -15 46 -28 52 -28 6 0 11 -4 11 -10 0 -5 6 -10 14 -10 8 0 21 -6 28
-12 13 -12 38 -28 83 -52 40 -22 170 -100 175 -106 3 -3 14 -10 25 -16 15 -8
933 -557 1045 -624 100 -61 365 -218 400 -238 25 -13 52 -31 61 -38 8 -8 19
-14 22 -14 4 0 30 -15 60 -32 29 -18 61 -38 72 -45 82 -50 176 -103 181 -102
4 0 10 -4 13 -9 5 -9 54 -39 146 -92 17 -9 84 -50 150 -90 191 -116 199 -121
218 -127 9 -3 17 -9 17 -14 0 -5 7 -9 15 -9 8 0 15 -4 15 -10 0 -5 4 -10 10
-10 5 0 63 -32 127 -71 65 -39 127 -76 138 -82 11 -7 32 -20 47 -29 14 -10 29
-18 33 -18 5 0 116 221 120 240 1 3 30 64 64 135 35 72 83 173 108 225 25 52
72 150 104 217 33 67 59 127 59 132 0 6 5 11 10 11 6 0 10 6 10 14 0 13 46
112 110 239 17 31 27 57 22 57 -4 0 -2 4 3 8 6 4 18 23 27 42 75 157 129 274
131 284 1 6 5 13 8 16 6 5 119 239 119 246 0 2 -44 24 -97 50 -54 26 -190 92
-303 147 -113 55 -297 144 -410 199 -113 55 -268 131 -346 169 -77 38 -145 69
-151 69 -6 0 -16 7 -23 15 -6 8 -15 14 -18 13 -4 -1 -83 35 -177 81 -371 182
-597 291 -604 291 -4 0 -13 6 -19 13 -7 6 -16 12 -20 12 -14 1 -325 156 -320
160 2 2 40 23 83 46 134 70 304 158 435 227 69 35 140 73 158 84 17 11 32 17
32 13 0 -4 12 3 26 14 15 12 32 21 39 21 7 0 18 7 25 15 7 9 15 13 18 10 3 -3
10 -1 16 4 6 5 65 37 131 71 247 128 350 183 360 191 5 5 17 9 26 9 10 0 19 4
21 8 2 5 96 57 209 115 114 58 222 115 240 125 19 10 90 47 159 82 69 35 137
72 153 83 15 10 27 16 27 13 0 -4 17 4 38 17 20 13 67 38 104 57 l66 33 -35
81 c-19 45 -48 115 -64 156 -30 73 -41 99 -72 170 -9 19 -31 73 -50 120 -19
47 -76 184 -127 305 -51 121 -104 247 -117 280 -14 33 -32 76 -40 95 -25 58
-30 69 -93 225 -34 83 -68 162 -75 176 -8 14 -12 29 -8 33 3 3 1 6 -5 6 -7 0
-12 7 -12 15 0 9 -11 38 -25 65 -14 28 -25 51 -24 52 0 2 -4 14 -9 28 -5 14
-11 31 -13 37 -3 8 -47 -15 -122 -62z"/>
<path d="M10630 9988 c-29 -62 -81 -171 -115 -243 -35 -71 -84 -175 -110 -230
-26 -55 -60 -125 -75 -156 -16 -32 -26 -60 -23 -63 4 -3 1 -6 -5 -6 -6 0 -14
-10 -17 -21 -4 -12 -39 -87 -77 -168 -39 -80 -90 -189 -115 -241 -104 -218
-144 -302 -208 -435 -38 -77 -70 -148 -71 -157 -3 -15 38 -48 66 -53 16 -3
106 -50 108 -57 2 -4 9 -8 16 -8 7 0 96 -41 197 -91 236 -117 387 -189 395
-188 4 0 10 -3 13 -8 5 -7 76 -44 91 -48 3 -1 88 -42 190 -92 154 -75 386
-188 720 -351 30 -15 58 -31 61 -35 3 -5 8 -7 10 -6 4 3 61 -24 414 -197 77
-38 143 -68 148 -66 4 1 7 -2 7 -7 0 -5 10 -12 23 -15 21 -6 21 -7 -11 -24
-18 -9 -95 -49 -170 -88 -75 -39 -166 -87 -202 -106 -59 -32 -431 -225 -555
-288 -27 -14 -51 -28 -53 -32 -2 -5 -12 -8 -22 -8 -10 0 -20 -3 -22 -7 -1 -5
-52 -33 -111 -62 -60 -30 -110 -59 -113 -63 -3 -4 -14 -8 -24 -8 -10 0 -20 -3
-22 -7 -1 -5 -34 -24 -73 -43 -38 -19 -72 -37 -75 -40 -3 -3 -21 -12 -40 -20
-19 -7 -40 -17 -46 -22 -6 -4 -58 -32 -115 -61 -57 -30 -117 -61 -134 -70 -16
-9 -36 -17 -42 -17 -7 0 -13 -4 -13 -8 0 -10 -82 -49 -89 -44 -2 2 -7 -1 -10
-6 -3 -5 -73 -44 -155 -86 -83 -42 -156 -82 -164 -89 -8 -7 -18 -11 -21 -11
-11 3 -81 -36 -81 -45 0 -4 3 -11 7 -15 4 -3 8 -12 9 -19 1 -7 10 -32 21 -57
35 -77 92 -213 98 -230 3 -10 26 -66 34 -85 19 -43 40 -94 76 -180 20 -49 45
-108 55 -130 10 -22 39 -92 65 -155 26 -63 50 -119 53 -125 4 -5 7 -14 8 -20
1 -5 10 -30 21 -55 11 -25 33 -74 48 -110 15 -36 35 -83 44 -105 10 -22 30
-71 46 -110 15 -38 39 -93 52 -122 12 -28 23 -54 23 -57 0 -4 9 -25 19 -49 22
-50 34 -79 35 -89 1 -4 7 -13 14 -19 6 -7 12 -18 12 -25 0 -6 9 -34 21 -62
l21 -50 126 80 c70 44 136 85 147 91 11 7 45 28 75 48 30 20 89 57 130 84 41
26 87 56 102 66 15 11 31 19 36 19 4 0 17 7 27 15 11 9 74 50 140 92 66 41
143 90 170 108 28 17 65 40 83 51 17 10 32 22 32 26 0 4 5 8 10 8 6 0 37 17
68 37 31 21 64 41 72 46 8 4 27 15 41 25 15 9 55 35 90 56 35 22 66 42 69 45
7 8 39 27 77 47 18 9 37 22 44 30 6 8 15 14 20 14 4 0 49 27 99 61 51 33 99
63 108 67 10 3 26 14 36 24 11 10 26 18 33 18 7 0 13 5 13 10 0 6 5 10 10 10
6 0 16 5 23 10 25 21 88 60 97 60 6 0 10 5 10 11 0 5 4 8 9 5 5 -4 11 -3 13 2
1 4 46 34 98 67 52 32 97 62 100 65 3 3 14 10 25 17 64 38 733 460 767 484 15
10 32 19 38 19 5 0 10 3 10 8 0 4 24 20 53 36 28 16 54 32 57 35 3 3 14 11 25
18 78 47 182 114 192 122 7 6 28 19 48 28 21 10 38 27 42 41 6 24 -3 975 -11
1097 -2 39 -7 142 -10 230 -4 88 -9 198 -12 245 -2 47 -6 145 -9 218 -2 74 -7
141 -10 150 -5 15 -161 112 -192 120 -7 2 -13 8 -13 13 0 5 -4 9 -9 9 -5 0
-65 33 -132 74 -68 40 -167 99 -219 129 -52 31 -99 60 -105 64 -5 5 -27 17
-47 26 -21 10 -38 22 -38 28 0 6 -4 8 -8 5 -5 -3 -20 3 -33 12 -28 20 -286
173 -404 240 -44 25 -82 48 -85 51 -3 3 -16 12 -29 19 -61 35 -91 52 -151 88
-36 21 -72 43 -81 49 -9 5 -36 21 -60 34 -24 13 -46 26 -49 30 -5 6 -20 15
-99 58 -25 14 -53 31 -61 37 -8 7 -26 18 -40 24 -14 7 -43 23 -65 37 -22 14
-47 28 -55 32 -8 4 -19 11 -25 15 -12 11 -304 185 -325 195 -8 3 -33 18 -55
32 -22 13 -49 30 -60 36 -11 6 -57 33 -103 60 -46 28 -91 55 -100 60 -19 11
-313 184 -340 200 -97 57 -118 70 -124 80 -4 5 -8 6 -8 2 0 -4 -26 9 -57 29
-32 20 -78 48 -103 62 -25 13 -52 30 -60 36 -17 13 -76 46 -82 46 -2 0 -28
-51 -58 -112z"/>
</g>
</svg>
